<svg xmlns="http://www.w3.org/2000/svg" xmlns:xlink="http://www.w3.org/1999/xlink" width="192" zoomAndPan="magnify" viewBox="0 0 144 143.999998" height="192" preserveAspectRatio="xMidYMid meet" version="1.0"><defs><g/><clipPath id="a29103ddf5"><path d="M 14.894531 34 L 51 34 L 51 70 L 14.894531 70 Z M 14.894531 34 " clip-rule="nonzero"/></clipPath><clipPath id="4c4b36283d"><path d="M 33 15.757812 L 69 15.757812 L 69 52 L 33 52 Z M 33 15.757812 " clip-rule="nonzero"/></clipPath><clipPath id="6b564a8df9"><path d="M 74 92 L 110 92 L 110 128.714844 L 74 128.714844 Z M 74 92 " clip-rule="nonzero"/></clipPath><clipPath id="f4c777bd71"><path d="M 33 92 L 69 92 L 69 128.714844 L 33 128.714844 Z M 33 92 " clip-rule="nonzero"/></clipPath><clipPath id="9c9f12878c"><path d="M 14.894531 74 L 51 74 L 51 111 L 14.894531 111 Z M 14.894531 74 " clip-rule="nonzero"/></clipPath><clipPath id="ab22f74d09"><path d="M 74 15.757812 L 110 15.757812 L 110 52 L 74 52 Z M 74 15.757812 " clip-rule="nonzero"/></clipPath><clipPath id="880c5e1819"><path d="M 91 34 L 127.851562 34 L 127.851562 70 L 91 70 Z M 91 34 " clip-rule="nonzero"/></clipPath><clipPath id="04851978f3"><path d="M 91 74 L 127.851562 74 L 127.851562 111 L 91 111 Z M 91 74 " clip-rule="nonzero"/></clipPath><clipPath id="4adea49ae2"><path d="M 86.328125 72.222656 L 131.816406 72.222656 L 131.816406 112.027344 L 86.328125 112.027344 Z M 86.328125 72.222656 " clip-rule="nonzero"/></clipPath><clipPath id="6655a09f0a"><path d="M 109.070312 112.027344 L 131.816406 72.222656 L 86.328125 72.222656 Z M 109.070312 112.027344 " clip-rule="nonzero"/></clipPath><clipPath id="84c7200757"><path d="M 88 76 L 132 76 L 132 120 L 88 120 Z M 88 76 " clip-rule="nonzero"/></clipPath><clipPath id="8230f56d49"><path d="M 88.039062 86.566406 L 131.972656 76.113281 L 141.121094 114.554688 L 97.1875 125.011719 Z M 88.039062 86.566406 " clip-rule="nonzero"/></clipPath><clipPath id="4a16beb85c"><path d="M 119.152344 119.78125 L 131.972656 76.113281 L 88.039062 86.566406 Z M 119.152344 119.78125 " clip-rule="nonzero"/></clipPath><clipPath id="ffbad0937a"><path d="M 69.203125 7.601562 L 133.785156 7.601562 L 133.785156 136.765625 L 69.203125 136.765625 Z M 69.203125 7.601562 " clip-rule="nonzero"/></clipPath><clipPath id="c4dd42d807"><path d="M 74.261719 7.601562 L 138.84375 7.601562 L 138.84375 136.765625 L 74.261719 136.765625 Z M 74.261719 7.601562 " clip-rule="nonzero"/></clipPath></defs><rect x="-14.4" width="172.8" fill="#ffffff" y="-14.4" height="172.799997" fill-opacity="1"/><rect x="-14.4" width="172.8" fill="#75c3ea" y="-14.4" height="172.799997" fill-opacity="1"/><g clip-path="url(#a29103ddf5)"><path fill="#ffffff" d="M 50.984375 55.84375 L 29.496094 34.351562 C 21.09375 43.71875 15.582031 55.980469 14.894531 69.480469 L 45.335938 69.480469 C 45.886719 64.382812 47.953125 59.5625 50.984375 55.84375 Z M 50.984375 55.84375 " fill-opacity="1" fill-rule="nonzero"/></g><g clip-path="url(#4c4b36283d)"><path fill="#ffffff" d="M 68.617188 46.199219 L 68.617188 15.757812 C 55.117188 16.445312 42.855469 21.816406 33.488281 30.359375 L 54.980469 51.847656 C 58.699219 48.816406 63.519531 46.75 68.617188 46.199219 Z M 68.617188 46.199219 " fill-opacity="1" fill-rule="nonzero"/></g><g clip-path="url(#6b564a8df9)"><path fill="#ffffff" d="M 74.128906 98.269531 L 74.128906 128.714844 C 87.625 128.023438 99.886719 122.652344 109.253906 114.113281 L 87.765625 92.621094 C 84.046875 95.652344 79.222656 97.71875 74.128906 98.269531 Z M 74.128906 98.269531 " fill-opacity="1" fill-rule="nonzero"/></g><g clip-path="url(#f4c777bd71)"><path fill="#ffffff" d="M 33.488281 114.113281 C 42.855469 122.515625 55.117188 128.023438 68.617188 128.714844 L 68.617188 98.269531 C 63.519531 97.71875 58.699219 95.652344 54.980469 92.621094 Z M 33.488281 114.113281 " fill-opacity="1" fill-rule="nonzero"/></g><g clip-path="url(#9c9f12878c)"><path fill="#ffffff" d="M 45.335938 74.988281 L 14.894531 74.988281 C 15.582031 88.488281 20.953125 100.75 29.496094 110.117188 L 50.984375 88.628906 C 47.953125 84.90625 45.886719 80.085938 45.335938 74.988281 Z M 45.335938 74.988281 " fill-opacity="1" fill-rule="nonzero"/></g><g clip-path="url(#ab22f74d09)"><path fill="#ffffff" d="M 109.253906 30.359375 C 99.886719 21.953125 87.625 16.445312 74.128906 15.757812 L 74.128906 46.199219 C 79.222656 46.75 84.046875 48.816406 87.765625 51.847656 Z M 109.253906 30.359375 " fill-opacity="1" fill-rule="nonzero"/></g><g clip-path="url(#880c5e1819)"><path fill="#ffffff" d="M 97.40625 69.480469 L 127.851562 69.480469 C 127.160156 55.980469 121.789062 43.71875 113.25 34.351562 L 91.757812 55.84375 C 94.789062 59.5625 96.855469 64.382812 97.40625 69.480469 Z M 97.40625 69.480469 " fill-opacity="1" fill-rule="nonzero"/></g><g clip-path="url(#04851978f3)"><path fill="#ffffff" d="M 91.757812 88.628906 L 113.25 110.117188 C 121.652344 100.75 127.160156 88.488281 127.851562 74.988281 L 97.40625 74.988281 C 96.855469 80.085938 94.789062 84.90625 91.757812 88.628906 Z M 91.757812 88.628906 " fill-opacity="1" fill-rule="nonzero"/></g><g clip-path="url(#4adea49ae2)"><g clip-path="url(#6655a09f0a)"><path fill="#75c3ea" d="M 86.328125 72.222656 L 131.816406 72.222656 L 131.816406 112.027344 L 86.328125 112.027344 Z M 86.328125 72.222656 " fill-opacity="1" fill-rule="nonzero"/></g></g><g clip-path="url(#84c7200757)"><g clip-path="url(#8230f56d49)"><g clip-path="url(#4a16beb85c)"><path fill="#75c3ea" d="M 88.039062 86.566406 L 131.972656 76.113281 L 141.121094 114.554688 L 97.1875 125.011719 Z M 88.039062 86.566406 " fill-opacity="1" fill-rule="nonzero"/></g></g></g><g fill="#ffffff" fill-opacity="1"><g transform="translate(51.942158, 91.369265)"><g><path d="M 37.09375 -21.328125 L 22.609375 -21.328125 L 22.609375 -41.46875 C 27.640625 -41.15625 31.289062 -39.429688 33.5625 -36.296875 C 35.84375 -33.160156 37.019531 -28.171875 37.09375 -21.328125 Z M 18.546875 -4.21875 L 18.734375 -4.1875 C 19.972656 -3.976562 20.941406 -3.875 21.640625 -3.875 C 24.660156 -3.875 27.410156 -4.726562 29.890625 -6.4375 C 32.367188 -8.15625 34.640625 -10.769531 36.703125 -14.28125 L 36.703125 -6.5 C 34.410156 -4 32.007812 -2.171875 29.5 -1.015625 C 27 0.128906 24.175781 0.703125 21.03125 0.703125 C 14.675781 0.703125 9.769531 -1.125 6.3125 -4.78125 C 2.851562 -8.4375 1.125 -13.601562 1.125 -20.28125 C 1.125 -26.5625 2.660156 -31.566406 5.734375 -35.296875 C 8.804688 -39.023438 13.078125 -41.082031 18.546875 -41.46875 Z M 18.546875 -4.21875 "/></g></g></g><g fill="#ffffff" fill-opacity="1"><g transform="translate(88.037377, 116.674377)"><g><path d="M 47.78125 -42.8125 L 47.78125 -28.484375 L 8.1875 -28.484375 L 8.1875 -42.8125 Z M 47.78125 -42.8125 "/></g></g></g><g clip-path="url(#ffbad0937a)"><path fill="#75c3ea" d="M 69.207031 136.761719 L 69.207031 129.820312 C 100.988281 129.820312 126.84375 103.964844 126.84375 72.183594 C 126.84375 40.402344 100.988281 14.542969 69.207031 14.542969 L 69.207031 7.601562 C 104.816406 7.601562 133.785156 36.574219 133.785156 72.183594 C 133.785156 107.792969 104.816406 136.761719 69.207031 136.761719 Z M 69.207031 136.761719 " fill-opacity="1" fill-rule="nonzero"/></g><g clip-path="url(#c4dd42d807)"><path fill="#75c3ea" d="M 74.261719 136.761719 L 74.261719 129.820312 C 106.042969 129.820312 131.898438 103.964844 131.898438 72.183594 C 131.898438 40.402344 106.042969 14.542969 74.261719 14.542969 L 74.261719 7.601562 C 109.871094 7.601562 138.84375 36.574219 138.84375 72.183594 C 138.84375 107.792969 109.871094 136.761719 74.261719 136.761719 Z M 74.261719 136.761719 " fill-opacity="1" fill-rule="nonzero"/></g></svg>