<svg xmlns="http://www.w3.org/2000/svg" xmlns:xlink="http://www.w3.org/1999/xlink" width="512" zoomAndPan="magnify" viewBox="0 0 384 383.999986" height="512" preserveAspectRatio="xMidYMid meet" version="1.0"><defs><g/><clipPath id="80b048133b"><path d="M 38.398438 91 L 136 91 L 136 187 L 38.398438 187 Z M 38.398438 91 " clip-rule="nonzero"/></clipPath><clipPath id="7363e6a5dc"><path d="M 88 41.828125 L 184 41.828125 L 184 140 L 88 140 Z M 88 41.828125 " clip-rule="nonzero"/></clipPath><clipPath id="4bb3711cca"><path d="M 198 249 L 293 249 L 293 346.410156 L 198 346.410156 Z M 198 249 " clip-rule="nonzero"/></clipPath><clipPath id="5951e46c0d"><path d="M 88 249 L 184 249 L 184 346.410156 L 88 346.410156 Z M 88 249 " clip-rule="nonzero"/></clipPath><clipPath id="88bb764b7c"><path d="M 38.398438 201 L 136 201 L 136 297 L 38.398438 297 Z M 38.398438 201 " clip-rule="nonzero"/></clipPath><clipPath id="f58e153217"><path d="M 198 41.828125 L 293 41.828125 L 293 140 L 198 140 Z M 198 41.828125 " clip-rule="nonzero"/></clipPath><clipPath id="e1d8cfb8c0"><path d="M 245 91 L 342.980469 91 L 342.980469 187 L 245 187 Z M 245 91 " clip-rule="nonzero"/></clipPath><clipPath id="d83efece7a"><path d="M 245 201 L 342.980469 201 L 342.980469 297 L 245 297 Z M 245 201 " clip-rule="nonzero"/></clipPath><clipPath id="1585032853"><path d="M 231.015625 194.089844 L 353.675781 194.089844 L 353.675781 301.417969 L 231.015625 301.417969 Z M 231.015625 194.089844 " clip-rule="nonzero"/></clipPath><clipPath id="6530dbcf24"><path d="M 292.34375 301.417969 L 353.675781 194.089844 L 231.015625 194.089844 Z M 292.34375 301.417969 " clip-rule="nonzero"/></clipPath><clipPath id="78b9c3a34f"><path d="M 235 204 L 355 204 L 355 323 L 235 323 Z M 235 204 " clip-rule="nonzero"/></clipPath><clipPath id="55eddd142a"><path d="M 235.628906 232.761719 L 354.09375 204.570312 L 378.761719 308.230469 L 260.292969 336.421875 Z M 235.628906 232.761719 " clip-rule="nonzero"/></clipPath><clipPath id="d4c10041fa"><path d="M 319.527344 322.328125 L 354.09375 204.570312 L 235.628906 232.761719 Z M 319.527344 322.328125 " clip-rule="nonzero"/></clipPath><clipPath id="80fcc8da8a"><path d="M 184.847656 19.835938 L 358.988281 19.835938 L 358.988281 368.117188 L 184.847656 368.117188 Z M 184.847656 19.835938 " clip-rule="nonzero"/></clipPath><clipPath id="07cae00ed0"><path d="M 198.476562 19.835938 L 372.617188 19.835938 L 372.617188 368.117188 L 198.476562 368.117188 Z M 198.476562 19.835938 " clip-rule="nonzero"/></clipPath></defs><path fill="#75c3ea" d="M 26.757812 410.742188 L 373.257812 410.742188 C 399.765625 410.742188 421.160156 389.347656 421.160156 362.839844 L 421.160156 16.339844 C 421.160156 -10.167969 399.765625 -31.5625 373.257812 -31.5625 L 26.757812 -31.5625 C 0.25 -31.5625 -21.144531 -10.167969 -21.144531 16.339844 L -21.144531 362.839844 C -21.144531 389.347656 0.25 410.742188 26.757812 410.742188 Z M 26.757812 410.742188 " fill-opacity="1" fill-rule="nonzero"/><g clip-path="url(#80b048133b)"><path fill="#ffffff" d="M 135.71875 149.917969 L 77.773438 91.972656 C 55.113281 117.230469 40.257812 150.289062 38.398438 186.691406 L 120.488281 186.691406 C 121.972656 172.945312 127.546875 159.945312 135.71875 149.917969 Z M 135.71875 149.917969 " fill-opacity="1" fill-rule="nonzero"/></g><g clip-path="url(#7363e6a5dc)"><path fill="#ffffff" d="M 183.261719 123.917969 L 183.261719 41.828125 C 146.859375 43.6875 113.800781 58.171875 88.542969 81.199219 L 146.488281 139.144531 C 156.519531 130.972656 169.519531 125.402344 183.261719 123.917969 Z M 183.261719 123.917969 " fill-opacity="1" fill-rule="nonzero"/></g><g clip-path="url(#4bb3711cca)"><path fill="#ffffff" d="M 198.117188 264.320312 L 198.117188 346.410156 C 234.519531 344.550781 267.578125 330.066406 292.835938 307.035156 L 234.890625 249.089844 C 224.863281 257.261719 211.863281 262.835938 198.117188 264.320312 Z M 198.117188 264.320312 " fill-opacity="1" fill-rule="nonzero"/></g><g clip-path="url(#5951e46c0d)"><path fill="#ffffff" d="M 88.542969 307.035156 C 113.800781 329.695312 146.859375 344.550781 183.261719 346.410156 L 183.261719 264.320312 C 169.519531 262.835938 156.519531 257.261719 146.488281 249.089844 Z M 88.542969 307.035156 " fill-opacity="1" fill-rule="nonzero"/></g><g clip-path="url(#88bb764b7c)"><path fill="#ffffff" d="M 120.488281 201.546875 L 38.398438 201.546875 C 40.257812 237.949219 54.742188 271.007812 77.773438 296.265625 L 135.71875 238.320312 C 127.546875 228.289062 121.972656 215.289062 120.488281 201.546875 Z M 120.488281 201.546875 " fill-opacity="1" fill-rule="nonzero"/></g><g clip-path="url(#f58e153217)"><path fill="#ffffff" d="M 292.835938 81.199219 C 267.578125 58.542969 234.519531 43.6875 198.117188 41.828125 L 198.117188 123.917969 C 211.863281 125.402344 224.863281 130.972656 234.890625 139.144531 Z M 292.835938 81.199219 " fill-opacity="1" fill-rule="nonzero"/></g><g clip-path="url(#e1d8cfb8c0)"><path fill="#ffffff" d="M 260.890625 186.691406 L 342.980469 186.691406 C 341.121094 150.289062 326.636719 117.230469 303.609375 91.972656 L 245.664062 149.917969 C 253.835938 159.945312 259.40625 172.945312 260.890625 186.691406 Z M 260.890625 186.691406 " fill-opacity="1" fill-rule="nonzero"/></g><g clip-path="url(#d83efece7a)"><path fill="#ffffff" d="M 245.664062 238.320312 L 303.609375 296.265625 C 326.265625 271.007812 341.121094 237.949219 342.980469 201.546875 L 260.890625 201.546875 C 259.40625 215.289062 253.835938 228.289062 245.664062 238.320312 Z M 245.664062 238.320312 " fill-opacity="1" fill-rule="nonzero"/></g><g clip-path="url(#1585032853)"><g clip-path="url(#6530dbcf24)"><path fill="#75c3ea" d="M 231.015625 194.089844 L 353.675781 194.089844 L 353.675781 301.417969 L 231.015625 301.417969 Z M 231.015625 194.089844 " fill-opacity="1" fill-rule="nonzero"/></g></g><g clip-path="url(#78b9c3a34f)"><g clip-path="url(#55eddd142a)"><g clip-path="url(#d4c10041fa)"><path fill="#75c3ea" d="M 235.628906 232.761719 L 354.09375 204.570312 L 378.761719 308.230469 L 260.292969 336.421875 Z M 235.628906 232.761719 " fill-opacity="1" fill-rule="nonzero"/></g></g></g><g fill="#ffffff" fill-opacity="1"><g transform="translate(138.299376, 245.712703)"><g><path d="M 100.015625 -57.53125 L 60.96875 -57.53125 L 60.96875 -111.8125 C 74.539062 -110.976562 84.390625 -106.332031 90.515625 -97.875 C 96.640625 -89.414062 99.804688 -75.96875 100.015625 -57.53125 Z M 50.015625 -11.375 L 50.53125 -11.28125 C 53.875 -10.71875 56.484375 -10.4375 58.359375 -10.4375 C 66.503906 -10.4375 73.914062 -12.75 80.59375 -17.375 C 87.28125 -22.007812 93.40625 -29.0625 98.96875 -38.53125 L 98.96875 -17.546875 C 92.78125 -10.785156 86.304688 -5.859375 79.546875 -2.765625 C 72.796875 0.328125 65.175781 1.875 56.6875 1.875 C 39.5625 1.875 26.335938 -3.046875 17.015625 -12.890625 C 7.691406 -22.742188 3.03125 -36.679688 3.03125 -54.703125 C 3.03125 -71.617188 7.171875 -85.101562 15.453125 -95.15625 C 23.734375 -105.21875 35.253906 -110.769531 50.015625 -111.8125 Z M 50.015625 -11.375 "/></g></g></g><g fill="#ffffff" fill-opacity="1"><g transform="translate(235.626946, 313.945656)"><g><path d="M 128.828125 -115.453125 L 128.828125 -76.8125 L 22.0625 -76.8125 L 22.0625 -115.453125 Z M 128.828125 -115.453125 "/></g></g></g><g clip-path="url(#80fcc8da8a)"><path fill="#75c3ea" d="M 184.847656 368.113281 L 184.847656 349.390625 C 270.546875 349.390625 340.265625 279.671875 340.265625 193.976562 C 340.265625 108.28125 270.546875 38.5625 184.847656 38.5625 L 184.847656 19.839844 C 280.867188 19.839844 358.988281 97.957031 358.988281 193.976562 C 358.988281 289.996094 280.867188 368.113281 184.847656 368.113281 Z M 184.847656 368.113281 " fill-opacity="1" fill-rule="nonzero"/></g><g clip-path="url(#07cae00ed0)"><path fill="#75c3ea" d="M 198.480469 368.113281 L 198.480469 349.390625 C 284.175781 349.390625 353.898438 279.671875 353.898438 193.976562 C 353.898438 108.28125 284.175781 38.5625 198.480469 38.5625 L 198.480469 19.839844 C 294.5 19.839844 372.617188 97.957031 372.617188 193.976562 C 372.617188 289.996094 294.5 368.113281 198.480469 368.113281 Z M 198.480469 368.113281 " fill-opacity="1" fill-rule="nonzero"/></g></svg>